<svg width="198" height="57" viewBox="0 0 198 57" fill="none" xmlns="http://www.w3.org/2000/svg">
<path d="M0 23.2869C0 18.1845 2.54601 13.3559 6.88404 10.6653C7.0338 10.5723 7.18873 10.4794 7.3385 10.3916C7.80845 10.1179 8.29906 9.86998 8.80516 9.65308C7.86526 11.631 7.3385 13.8517 7.3385 16.1911V49.1911L0 56.5296V23.2869Z" fill="url(#paint0_linear_0_222)"/>
<path d="M28.7343 30.1916C26.3277 35.2578 21.2254 38.7902 15.2761 38.9245V29.5925C17.4502 30.7855 19.9498 31.4672 22.6094 31.4672C24.7887 31.4672 26.8545 31.0127 28.7291 30.1916H28.7343Z" fill="url(#paint1_linear_0_222)"/>
<path d="M37.8854 16.1911C37.8854 22.4502 34.1258 27.8315 28.7343 30.1916C29.669 28.2085 30.1958 25.993 30.1958 23.6535C30.1958 15.2202 23.3582 8.37748 14.9197 8.37748C12.7455 8.37748 10.6746 8.83194 8.79999 9.65307C11.253 4.48358 16.5155 0.915039 22.6145 0.915039C31.053 0.915039 37.8906 7.7526 37.8906 16.1911H37.8854Z" fill="url(#paint2_linear_0_222)"/>
<path d="M50.0418 19.239H59.5602C63.8545 19.239 66.922 21.9904 66.922 25.8448C66.922 29.6992 63.8422 32.4878 59.5602 32.4878H53.0535V39.7753H50.0356V19.239H50.0418ZM59.3247 29.6869C62.1256 29.6869 63.9041 28.1934 63.9041 25.8448C63.9041 23.4962 62.1504 22.04 59.3804 22.04H53.0535V29.6869H59.3247Z" fill="black"/>
<path d="M72.0529 22.1143H69.0041V18.5264H72.0529V22.1143ZM71.9786 39.7753H69.0723V23.9424H71.9786V39.7753Z" fill="black"/>
<path d="M84.0623 31.7256L90.3645 39.7753H86.9191L81.8191 33.2934L76.8678 39.7753H73.6021L79.8051 31.7628L73.9182 23.9424H77.3636L82.036 30.1826L86.5968 23.9424H89.8626L84.0623 31.7256Z" fill="black"/>
<path d="M104.871 34.5266C104.053 38.0712 101.314 40.2091 97.6024 40.2091C92.9486 40.2091 89.8254 36.8504 89.8254 31.8372C89.8254 26.824 92.9115 23.5149 97.5157 23.5149C102.12 23.5149 104.946 26.7434 104.946 31.7938C104.946 32.1595 104.927 32.5003 104.896 32.9217H92.7875C93.1221 35.8218 94.9316 37.5817 97.6706 37.5817C99.7775 37.5817 101.19 36.5468 101.965 34.5328H104.865L104.871 34.5266ZM101.94 30.4058C101.55 27.6544 100.001 26.1423 97.5343 26.1423C95.068 26.1423 93.2895 27.7411 92.8557 30.4058H101.946H101.94Z" fill="black"/>
<path d="M109.798 39.7754H106.891V18.5203H109.798V39.7754Z" fill="black"/>
<path d="M113.692 19.248H123.21C127.505 19.248 130.572 21.9994 130.572 25.8539C130.572 29.7083 127.492 32.4968 123.21 32.4968H116.704V39.7843H113.686V19.248H113.692ZM122.975 29.6959C125.776 29.6959 127.554 28.2025 127.554 25.8539C127.554 23.5053 125.801 22.049 123.031 22.049H116.704V29.6959H122.975Z" fill="black"/>
<path d="M135.635 39.7782H132.729V23.9453H135.635V28.9957C136.366 25.8415 138.423 23.9453 141.77 23.9453H142.489V26.7153H141.776C137.147 26.7153 135.635 28.407 135.635 31.9268V39.772V39.7782Z" fill="black"/>
<path d="M151.127 23.5176C155.768 23.5176 158.867 26.8577 158.867 31.8585C158.867 36.8593 155.762 40.2118 151.127 40.2118C146.492 40.2118 143.387 36.8655 143.387 31.8585C143.387 26.8515 146.492 23.5176 151.127 23.5176ZM151.133 37.5844C154.12 37.5844 155.96 35.4031 155.96 31.8647C155.96 28.3263 154.12 26.1512 151.133 26.1512C148.146 26.1512 146.293 28.3325 146.293 31.8647C146.293 35.3969 148.14 37.5844 151.133 37.5844Z" fill="black"/>
<path d="M162.281 26.3868H159.877V23.9452H162.281V23.5858C162.281 19.6632 164.252 17.5935 167.939 17.5935C168.72 17.5935 169.575 17.6865 170.498 17.8724V20.3883C169.655 20.2148 168.949 20.128 168.342 20.128C166.129 20.128 165.045 21.2682 165.045 23.592V23.9514H170.504V26.393H165.194V39.7843H162.287V26.393L162.281 26.3868ZM175.53 22.1172H172.481V18.5292H175.53V22.1172ZM175.456 39.7781H172.549V23.9452H175.456V39.7781Z" fill="black"/>
<path d="M180.661 39.778H177.755V18.5229H180.661V39.778Z" fill="black"/>
<path d="M197.646 34.5293C196.829 38.0739 194.09 40.2118 190.378 40.2118C185.724 40.2118 182.601 36.8531 182.601 31.8399C182.601 26.8267 185.687 23.5176 190.291 23.5176C194.895 23.5176 197.721 26.7461 197.721 31.7965C197.721 32.1621 197.702 32.503 197.671 32.9243H185.563C185.897 35.8245 187.707 37.5844 190.446 37.5844C192.553 37.5844 193.966 36.5495 194.74 34.5355H197.64L197.646 34.5293ZM194.715 30.4084C194.325 27.6571 192.776 26.145 190.309 26.145C187.843 26.145 186.065 27.7438 185.631 30.4084H194.722H194.715Z" fill="black"/>
<defs>
<linearGradient id="paint0_linear_0_222" x1="0.97835" y1="53.4931" x2="10.6861" y2="53.8709" gradientUnits="userSpaceOnUse">
<stop stop-color="#00B7FD"/>
<stop offset="1" stop-color="#002C6D"/>
</linearGradient>
<linearGradient id="paint1_linear_0_222" x1="16.7714" y1="38.32" x2="30.4138" y2="42.396" gradientUnits="userSpaceOnUse">
<stop stop-color="#00B7FD"/>
<stop offset="1" stop-color="#002C6D"/>
</linearGradient>
<linearGradient id="paint2_linear_0_222" x1="12.0323" y1="28.2951" x2="42.8475" y2="34.6386" gradientUnits="userSpaceOnUse">
<stop stop-color="#00B7FD"/>
<stop offset="1" stop-color="#002C6D"/>
</linearGradient>
</defs>
</svg>
